<svg xmlns="http://www.w3.org/2000/svg" width="84" height="84" fill="none"><path fill="#725952" stroke="#725952" stroke-width="2" d="M66.887 2.012A4 4 0 0 0 64.228 1h-44.25a4 4 0 0 0-2.64.995L2.36 15.149A4 4 0 0 0 1 18.154v47.048a4 4 0 0 0 1.261 2.916L16.95 81.916A4 4 0 0 0 19.69 83h44.623a4 4 0 0 0 2.739-1.085l14.688-13.797a4 4 0 0 0 1.26-2.916v-47.06a4 4 0 0 0-1.34-2.988z"/><path fill="#5F443C" d="M66.222 6.288a3 3 0 0 0-1.994-.758H22.864a3 3 0 0 0-1.823.617l-17.38 13.29a3 3 0 0 0-1.177 2.35l-.47 43.344a3 3 0 0 0 .942 2.215l14.677 13.837a3 3 0 0 0 2.058.817H64.2a3 3 0 0 0 2.03-.792l14.8-13.61a3 3 0 0 0 .97-2.209V21.672a3 3 0 0 0-1.006-2.241z"/><path fill="#96786F" d="M66.222 2.759A3 3 0 0 0 64.228 2h-44.25a3 3 0 0 0-1.98.746L3.02 15.9A3 3 0 0 0 2 18.154v43.694a3 3 0 0 0 .984 2.221L17.99 77.692a3 3 0 0 0 2.016.779H64.2a3 3 0 0 0 2.03-.792l14.8-13.611A3 3 0 0 0 82 61.86V18.143a3 3 0 0 0-1.006-2.242z"/><mask id="a" width="80" height="77" x="2" y="2" maskUnits="userSpaceOnUse" style="mask-type:alpha"><path fill="#96786F" d="M66.222 2.759A3 3 0 0 0 64.228 2h-44.25a3 3 0 0 0-1.98.746L3.02 15.9A3 3 0 0 0 2 18.154v43.694a3 3 0 0 0 .984 2.221L17.99 77.692a3 3 0 0 0 2.016.779H64.2a3 3 0 0 0 2.03-.792l14.8-13.611A3 3 0 0 0 82 61.86V18.143a3 3 0 0 0-1.006-2.242z"/></mask><g fill-rule="evenodd" clip-rule="evenodd" mask="url(#a)"><path fill="#89716A" d="M11.655 78.989a783 783 0 0 0 91.351 10.789 118 118 0 0 0 4.093-10.169 120 120 0 0 0 1.97-6.028A143 143 0 0 0 112 61.938c-5.204-.414-10.383-.983-15.588-1.63C52.202 54.797 9.078 42.43-35.309 37.436a590 590 0 0 0-64.396-4.32A291 291 0 0 0-140 35.702c0 3.829.177 7.606.505 11.358 0 .854.177 1.682.253 2.587.491 4.53 1.233 10.179 2.189 14.63 7.579-1.061 15.264-2.471 22.842-2.834 12.248-.488 24.674.621 36.843 2.125 30.113 3.52 59.237 10.581 89.124 15.471z"/><path fill="#88716A" d="M-42.22 14.766c27.703 2.205 54.7 5.707 82.301 8.794 21.24 2.45 42.722 4.832 64.012 6.596l9.907.733c-.228-3.896-.634-8.5-1.217-12.273a74 74 0 0 0-.709-4.14c-.279-1.373-.431-2.206-.659-3.309-10.899-1.151-21.772-2.45-32.67-3.822-13.612-1.69-27.197-3.405-40.833-4.9C23.491.804 9.044-.593-5.428-1.622c-25.118-1.764-50.084-2.303-75.15-1.69q-14.296.366-28.666 1.175l-2.332.172c-7.933.44-15.866.906-23.774 1.47-1.502 4.531-2.721 9.855-3.65 14.528 5.576-.514 11.053-.911 16.629-1.132 26.61-.825 53.635-.445 80.151 1.865"/><path fill="#7A615A" d="M-58.724-77.579a468.3 468.3 0 0 1 88.83 4.684l19.538 3.05a120 120 0 0 1 8.56 5.171c-8.862-1.683-17.624-3.415-26.588-5.025a421 421 0 0 0-40.588-5.562 294 294 0 0 0-46.101 0c-3.727.268-7.428.561-11.154.902a141 141 0 0 1 7.553-3.098zM81.469-45.01a1027 1027 0 0 1-31.397-2.83c-13.647-1.561-26.815-5.88-40.462-7.514a286 286 0 0 0-37.767-1.903c-11.834.171-23.618 1.025-35.401 2.22-12.917 1.318-25.783 3.025-38.674 4.611 1.359-1.293 2.744-2.586 4.154-3.805 11.33-1.147 22.66-2.22 33.966-3.001 11.884-.805 23.793-1.244 35.728-1.098 12.76.11 25.503.909 38.17 2.39 13.446 1.587 26.74 4.27 40.286 5.124 9.09.585 18.153 1.098 27.243 1.561a92 92 0 0 1 4.054 4.172zm-194.327 6.148c3.727 0 7.554-.269 11.18-.488 12.362-.635 24.574-2.196 36.836-3.66a296 296 0 0 1 34.771-2.634c26.311 0 52.27 4.122 78.405 6.391a1367 1367 0 0 0 40.588 2.928c.58.756 1.158 1.512 1.712 2.293l-4.23-.415c-12.715-1.195-25.43-2.44-38.17-3.635-26.01-2.317-51.918-6.416-78.053-6.489a322 322 0 0 0-34.948 2.44c-12.11 1.317-24.196 2.756-36.358 3.39-4.104.22-8.183.44-12.287.708zm3.173 12.197c14.503-1.244 28.83-3.586 43.458-4.367a467 467 0 0 1 52.27.537c15.107.903 30.013 2.171 45.044 3.22a3361 3361 0 0 0 45.649 2.879c6.949.39 13.923.756 20.873 1.098.579.975 1.108 1.927 1.662 2.903-14.579-1.098-29.056-2.27-43.71-3.318a2426 2426 0 0 0-24.398-1.683c-17.625-1.123-35.25-2.44-52.749-3.196a452 452 0 0 0-44.54-.512c-14.528.78-29.056 1.537-43.559 2.44M106.648-4.174C89.854-5.394 73.11-6.979 56.367-8.589s-33.01-3.245-49.526-4.562c-15.108-1.22-30.215-2.708-45.322-4.025-13.52-1.196-27.066-2.196-40.612-2.44a335 335 0 0 0-47.537 2.05l.453-1.172a408 408 0 0 1 35.88-1.854c15.56-.146 31.12.513 46.63 1.513 16.87 1.073 33.714 2.44 50.558 3.879 23.038 1.854 45.976 3.83 68.964 5.464q14.653 1.074 29.383 1.879c.503 1.22.957 2.44 1.41 3.683m-240.001 2.196c8.41-.756 16.87-1.293 25.179-1.732A1289 1289 0 0 1 26.681-2.441C54.58-.93 82.2 3.096 109.896 6.487c.453 1.683.856 3.415 1.233 5.123-10.826-1.146-21.678-2.44-32.505-3.806-13.52-1.683-27.016-3.39-40.562-4.879C23.735 1.291 9.384-.1-4.993-1.125a804 804 0 0 0-103.232-.511c-8.661.512-17.348.975-26.009 1.634.201-.659.428-1.293.654-1.927zm3.173 86.603c18.229-3.22 38.17-2.098 60.428 4.733 20.671 6.342 41.318 12.929 62.115 18.93a504 504 0 0 0 50.558 12.198c11.054 2 22.107 3.415 33.236 4.342a134 134 0 0 1-4.81 4.367c-10.297-1.439-20.495-3.342-30.717-5.684-16.844-3.806-33.361-8.685-50.055-13.418-20.394-5.879-40.738-11.587-61.36-16.686a132.26 132.26 0 0 0-56.45-2.44 133 133 0 0 1-2.945-6.342m-6.849-21.029c7.554-1.024 15.588-2.561 23.141-2.902 12.207-.46 23.951.947 36.079 2.366 30.012 3.317 59.32 10.904 89.106 15.515a824 824 0 0 0 91.096 10.148 116 116 0 0 1-2.82 5.562 497 497 0 0 1-7.906-.512A732 732 0 0 1 9.635 82.015c-12.11-2.293-24.196-4.88-36.257-7.319-11.28-2.44-22.66-4.879-33.915-7.026-10.071-1.903-20.143-3.61-30.214-4.61-8.415-1.003-14.701-.824-23.137 0-6.748.829-15.789 1.536-22.562 2.756zm-2.895-28.786a336.4 336.4 0 0 1 48.065-2.44c18.582.269 37.163 1.586 55.67 3.099 22.333 1.805 44.515 5.171 66.597 8.709 27.217 4.342 54.662 9.05 82.182 11.563a119 119 0 0 1-1.234 6.733c-5.212-.39-10.399-.927-15.61-1.537C51.683 55.741 8.704 44.08-35.534 39.372a621 621 0 0 0-64.18-4.074c-13.471-.082-26.931.733-40.286 2.44v-2.953zm2.316-21.102a335 335 0 0 1 16.643-1.098 671 671 0 0 1 79.236 2.196c27.52 2.196 54.94 5.367 82.359 8.44 21.1 2.44 42.199 4.66 63.349 6.417l9.87.78c0 1.366 0 2.732.151 4.099l-8.536-.684c-21.2-1.975-42.274-4.415-63.323-6.854-28.074-3.44-56.173-7.075-84.348-9.759a601 601 0 0 0-78.683-3.049q-8.56.366-17.096 1.39a26 26 0 0 1 .378-1.902zm156.66 142.59c-11.809-2.635-23.567-5.465-35.25-8.416a328 328 0 0 1-41.645-14.394c-16.164-6.464-32.404-13.124-49.45-13.783-.655-.707-1.31-1.39-1.939-2.122 20.143-.342 39.027 6.928 58.338 14.1a369 369 0 0 0 44.541 14.345 1642 1642 0 0 0 34.62 7.733c-3.021 1-6.093 1.903-9.215 2.683z"/></g><path fill="#6E544C" d="M62.718 12.763a3 3 0 0 0-2-.763H25.89a3 3 0 0 0-1.828.621L9.578 23.751a3 3 0 0 0-1.172 2.34l-.39 30.199a3 3 0 0 0 .938 2.216l12.203 11.56a3 3 0 0 0 2.063.823h37.47a3 3 0 0 0 2.036-.797l12.31-11.375A3 3 0 0 0 76 56.514V25.979a3 3 0 0 0-1-2.236z"/><path fill="#8F7F54" d="M62.718 10.541a3 3 0 0 0-2-.763H25.89a3 3 0 0 0-1.828.621L9.578 21.53a3 3 0 0 0-1.172 2.34l-.39 30.198a3 3 0 0 0 .938 2.217l12.203 11.56a3 3 0 0 0 2.063.823h37.47a3 3 0 0 0 2.036-.797l12.31-11.375A3 3 0 0 0 76 54.292V23.757a3 3 0 0 0-1-2.236z"/><path fill="#FDE294" d="M62.713 7.19a3 3 0 0 0-1.98-.746H24.013a3 3 0 0 0-1.918.694L9.082 17.956A3 3 0 0 0 8 20.263v30.715a3 3 0 0 0 .957 2.196L21.16 64.53a3 3 0 0 0 2.044.803h37.501a3 3 0 0 0 2.016-.778l12.294-11.158A3 3 0 0 0 76 51.175v-30.96a3 3 0 0 0-1.02-2.255z"/></svg>