<svg xmlns="http://www.w3.org/2000/svg" width="90" height="105" fill="none"><path fill="#5F443C" d="M80.937 3.69A3 3 0 0 0 78.24 2H11.76a3 3 0 0 0-2.698 1.69L.3 21.73A3 3 0 0 0 0 23.042v72.19a3 3 0 0 0 .91 2.153l6.977 6.769a3 3 0 0 0 2.09.847h70.046a3 3 0 0 0 2.09-.847l6.976-6.77A3 3 0 0 0 90 95.232V23.04a3 3 0 0 0-.301-1.31z"/><g filter="url(#a)"><path fill="#977970" d="M83.292 1.192A4 4 0 0 0 80.442 0H9.558a4 4 0 0 0-2.849 1.192l-5.557 5.64A4 4 0 0 0 0 9.64v77.174a4 4 0 0 0 1.206 2.863l8.389 8.186A4 4 0 0 0 12.388 99h65.339a4 4 0 0 0 2.647-1.001l8.273-7.305A4 4 0 0 0 90 87.696V9.64a4 4 0 0 0-1.15-2.808z"/></g><mask id="b" width="90" height="99" x="0" y="0" maskUnits="userSpaceOnUse" style="mask-type:alpha"><path fill="#AD938B" d="M82.998.894A3 3 0 0 0 80.861 0H9.14a3 3 0 0 0-2.137.894L.863 7.124A3 3 0 0 0 0 9.23v78.006a3 3 0 0 0 .905 2.147l8.981 8.764a3 3 0 0 0 2.095.853h66.124a3 3 0 0 0 1.986-.751l8.895-7.853A3 3 0 0 0 90 88.146V9.23a3 3 0 0 0-.863-2.106z"/></mask><g fill-rule="evenodd" clip-rule="evenodd" mask="url(#b)"><path fill="#D4AC7B" fill-opacity=".5" d="M67.795 86.286a792 792 0 0 0 83.606 8.89 92 92 0 0 0 3.746-8.378 92 92 0 0 0 1.803-4.968 108 108 0 0 0 2.682-9.594c-4.763-.34-9.503-.81-14.266-1.343-40.461-4.541-79.929-14.732-120.553-18.847a599 599 0 0 0-58.935-3.56c-12.33-.06-24.652.653-36.878 2.132 0 3.155.162 6.268.462 9.36 0 .703.162 1.385.232 2.131.45 3.733 1.128 8.388 2.004 12.055 6.936-.874 13.968-2.036 20.905-2.335 11.209-.402 22.581.512 33.718 1.752 27.56 2.899 54.215 8.718 81.567 12.748zM18.729 33.195c25.372 1.83 50.099 4.737 75.379 7.299 19.453 2.034 39.128 4.01 58.627 5.474l9.074.608c-.209-3.233-.58-7.054-1.114-10.186a57 57 0 0 0-.65-3.437c-.256-1.138-.395-1.83-.604-2.745-9.982-.955-19.941-2.033-29.923-3.172-12.465-1.403-24.908-2.827-37.397-4.067-13.209-1.363-26.44-2.522-39.695-3.376a802 802 0 0 0-68.83-1.403q-13.093.305-26.254.976l-2.136.142c-7.266.366-14.532.753-21.774 1.22-1.376 3.762-2.492 8.18-3.343 12.059 5.107-.428 10.123-.757 15.23-.94 24.372-.685 49.124-.37 73.41 1.548" opacity=".4"/><path fill="#886759" fill-opacity=".3" d="M3.495-42.654a478.6 478.6 0 0 1 81.418 3.846l17.908 2.504c2.7 1.322 5.308 2.744 7.847 4.246-8.124-1.382-16.155-2.804-24.37-4.126a429 429 0 0 0-37.202-4.567 300.5 300.5 0 0 0-42.255 0c-3.415.22-6.808.46-10.223.74a138 138 0 0 1 6.923-2.543zm128.496 26.74a1049 1049 0 0 1-28.777-2.323c-12.508-1.282-24.578-4.828-37.086-6.17a292 292 0 0 0-34.617-1.562c-10.846.14-21.647.841-32.447 1.823-11.839 1.081-23.632 2.483-35.447 3.785a107 107 0 0 1 3.807-3.124c10.385-.942 20.77-1.823 31.132-2.464 10.893-.661 21.809-1.021 32.748-.901a363 363 0 0 1 34.985 1.963c12.324 1.302 24.509 3.505 36.925 4.206 8.331.48 16.639.901 24.97 1.282a81 81 0 0 1 3.715 3.425zm-178.113 5.048c3.415 0 6.923-.22 10.246-.401 11.331-.52 22.524-1.803 33.763-3.004a302 302 0 0 1 31.87-2.164c24.116 0 47.91 3.385 71.864 5.248q18.463 1.443 37.201 2.404c.531.62 1.062 1.242 1.57 1.883l-3.877-.34c-11.655-.982-23.309-2.004-34.986-2.985-23.84-1.903-47.586-5.268-71.541-5.328A329 329 0 0 0-2.044-13.55c-11.1 1.081-22.177 2.263-33.324 2.784-3.762.18-7.5.36-11.262.58zm2.908 10.015c13.292-1.022 26.423-2.945 39.832-3.586a478 478 0 0 1 47.909.44c13.847.742 27.509 1.784 41.286 2.645S113.691.31 127.653 1.01c6.369.32 12.762.621 19.131.902.531.801 1.016 1.582 1.523 2.383-13.362-.901-26.631-1.862-40.062-2.724Q97.075.832 85.882.19C69.728-.73 53.573-1.813 37.534-2.434a463 463 0 0 0-40.824-.42c-13.316.64-26.632 1.262-39.924 2.003m198.283 18.467c-15.393-1.001-30.739-2.303-46.086-3.625s-30.255-2.664-45.394-3.746C49.743 9.244 35.896 8.022 22.05 6.94 9.657 5.96-2.759 5.138-15.175 4.937a343 343 0 0 0-43.57 1.683l.415-.962a418 418 0 0 1 32.885-1.522c14.262-.12 28.524.42 42.74 1.242 15.462.881 30.901 2.003 46.34 3.185 21.116 1.522 42.14 3.144 63.21 4.486q13.432.882 26.932 1.543a72 72 0 0 1 1.292 3.024M-64.907 19.42c7.707-.62 15.462-1.061 23.077-1.422a1318 1318 0 0 1 123.604 1.041c25.57 1.242 50.887 4.547 76.272 7.331a87 87 0 0 1 1.131 4.207c-9.923-.942-19.87-2.003-29.793-3.125-12.393-1.382-24.763-2.784-37.178-4.006-13.132-1.342-26.286-2.484-39.463-3.325a822 822 0 0 0-94.619-.42c-7.939.42-15.9.8-23.84 1.342.185-.541.393-1.062.6-1.583zM-62 90.526c16.709-2.644 34.986-1.723 55.387 3.886 18.947 5.207 37.87 10.615 56.933 15.543a508 508 0 0 0 46.34 10.015c10.131 1.642 20.262 2.804 30.462 3.565a120 120 0 0 1-4.408 3.586 366 366 0 0 1-28.155-4.667c-15.438-3.125-30.577-7.131-45.878-11.017-18.693-4.827-37.34-9.514-56.24-13.7-16.861-3.998-34.537-4.683-51.74-2.003a105 105 0 0 1-2.7-5.208m-6.277-17.266c6.924-.842 14.287-2.103 21.21-2.384 11.189-.377 21.953.779 33.069 1.943 27.508 2.724 54.371 8.953 81.672 12.74a840 840 0 0 0 83.495 8.332 92 92 0 0 1-2.585 4.567 507 507 0 0 1-7.246-.421 744 744 0 0 1-75.187-9.655c-11.1-1.882-22.178-4.006-33.232-6.009-10.339-2.003-20.77-4.006-31.086-5.768-9.23-1.562-18.462-2.965-27.693-3.786-7.713-.823-13.475-.676-21.206 0-6.185.681-14.472 1.262-20.68 2.263zm-2.654-23.636a344 344 0 0 1 44.056-2.003c17.03.22 34.062 1.302 51.024 2.544 20.47 1.482 40.802 4.246 61.04 7.15 24.948 3.566 50.103 7.432 75.327 9.495a89 89 0 0 1-1.131 5.528c-4.777-.32-9.531-.76-14.308-1.261-40.386-4.267-79.78-13.841-120.328-17.707a634 634 0 0 0-58.825-3.345A310 310 0 0 0-71 52.028v-2.424zm2.123-17.326a342 342 0 0 1 15.255-.901A687 687 0 0 1 19.072 33.2c25.224 1.802 50.356 4.406 75.487 6.93 19.34 2.003 38.679 3.826 58.064 5.268l9.046.641c0 1.122 0 2.243.139 3.365l-7.823-.56c-19.432-1.623-38.748-3.626-58.04-5.63-25.733-2.823-51.487-5.808-77.311-8.011a615 615 0 0 0-72.118-2.504q-7.846.3-15.67 1.142.14-.782.346-1.563zm143.59 117.076c-10.824-2.163-21.6-4.487-32.309-6.91a325 325 0 0 1-38.17-11.818c-14.816-5.308-29.701-10.776-45.325-11.317-.6-.581-1.2-1.142-1.777-1.743 18.462-.28 35.77 5.689 53.471 11.578a367 367 0 0 0 40.824 11.777 1653 1653 0 0 0 31.732 6.35c-2.77.821-5.584 1.562-8.446 2.203z" opacity=".5"/></g><g filter="url(#c)"><rect width="74" height="66" x="8" y="5" fill="#614B45" fill-opacity=".7" rx="9"/></g><defs><filter id="a" width="90" height="99" x="0" y="0" color-interpolation-filters="sRGB" filterUnits="userSpaceOnUse"><feFlood flood-opacity="0" result="BackgroundImageFix"/><feBlend in="SourceGraphic" in2="BackgroundImageFix" result="shape"/><feColorMatrix in="SourceAlpha" result="hardAlpha" values="0 0 0 0 0 0 0 0 0 0 0 0 0 0 0 0 0 0 127 0"/><feOffset dx="3"/><feComposite in2="hardAlpha" k2="-1" k3="1" operator="arithmetic"/><feColorMatrix values="0 0 0 0 0.678431 0 0 0 0 0.576471 0 0 0 0 0.545098 0 0 0 1 0"/><feBlend in2="shape" result="effect1_innerShadow_673_16588"/><feColorMatrix in="SourceAlpha" result="hardAlpha" values="0 0 0 0 0 0 0 0 0 0 0 0 0 0 0 0 0 0 127 0"/><feOffset dx="-3"/><feComposite in2="hardAlpha" k2="-1" k3="1" operator="arithmetic"/><feColorMatrix values="0 0 0 0 0.678431 0 0 0 0 0.576471 0 0 0 0 0.545098 0 0 0 1 0"/><feBlend in2="effect1_innerShadow_673_16588" result="effect2_innerShadow_673_16588"/></filter><filter id="c" width="74" height="66" x="8" y="5" color-interpolation-filters="sRGB" filterUnits="userSpaceOnUse"><feFlood flood-opacity="0" result="BackgroundImageFix"/><feBlend in="SourceGraphic" in2="BackgroundImageFix" result="shape"/><feColorMatrix in="SourceAlpha" result="hardAlpha" values="0 0 0 0 0 0 0 0 0 0 0 0 0 0 0 0 0 0 127 0"/><feOffset dy="5"/><feComposite in2="hardAlpha" k2="-1" k3="1" operator="arithmetic"/><feColorMatrix values="0 0 0 0 0.368627 0 0 0 0 0.27451 0 0 0 0 0.243137 0 0 0 1 0"/><feBlend in2="shape" result="effect1_innerShadow_673_16588"/><feColorMatrix in="SourceAlpha" result="hardAlpha" values="0 0 0 0 0 0 0 0 0 0 0 0 0 0 0 0 0 0 127 0"/><feOffset dy="-5"/><feComposite in2="hardAlpha" k2="-1" k3="1" operator="arithmetic"/><feColorMatrix values="0 0 0 0 0.364706 0 0 0 0 0.286275 0 0 0 0 0.258824 0 0 0 0.8 0"/><feBlend in2="effect1_innerShadow_673_16588" result="effect2_innerShadow_673_16588"/></filter></defs></svg>